<?xml version="1.0" standalone="no"?><!DOCTYPE svg PUBLIC "-//W3C//DTD SVG 1.1//EN" "http://www.w3.org/Graphics/SVG/1.1/DTD/svg11.dtd"><svg t="1593945320322" class="icon" viewBox="0 0 1024 1024" version="1.1" xmlns="http://www.w3.org/2000/svg" p-id="17165" xmlns:xlink="http://www.w3.org/1999/xlink" width="200" height="200"><defs><style type="text/css"></style></defs><path d="M518.984 171.256c13.208 0 24-10.912 24-24.24V98.48c0-13.296-10.792-24.24-24-24.24s-24 10.904-24 24.256v48.512c0 13.328 10.792 24.24 24 24.24zM242.24 432c0-13.208-10.912-24-24.24-24h-48.528c-13.296 0-24.24 10.792-24.24 24s10.904 24 24.256 24h48.512c13.328 0 24.24-10.792 24.24-24z m466.776-190.032c9.336 9.344 24.688 9.256 34.112-0.168l34.32-34.32c9.392-9.4 9.504-24.768 0.16-34.112-9.336-9.336-24.68-9.248-34.12 0.184l-34.304 34.304c-9.424 9.424-9.512 24.776-0.168 34.112z m78.752 190.136c0 13.208 10.92 24 24.248 24h48.528c13.296 0 24.24-10.792 24.24-24 0-13.2-10.912-24-24.256-24h-48.512c-13.328 0-24.24 10.8-24.24 24zM330.776 242.816c9.344-9.344 9.256-24.688-0.176-34.12l-34.312-34.312c-9.4-9.4-24.768-9.512-34.112-0.176-9.336 9.344-9.256 24.688 0.184 34.128l34.304 34.304c9.424 9.424 24.776 9.52 34.112 0.176z" p-id="17166"></path><path d="M152 912m24 0l672 0q24 0 24 24l0 0q0 24-24 24l-672 0q-24 0-24-24l0 0q0-24 24-24Z" p-id="17167"></path><path d="M312 914.328V456.224C312 342.376 401.68 250.32 512 250.32s200 92.048 200 205.896v456.224h48V456.224c0-140.08-110.888-253.896-248-253.896S264 316.136 264 456.224v458.104h48z" p-id="17168"></path><path d="M445.232 729.04a24 24 0 1 0 37.536 29.92l110.96-139.256a24.8 24.8 0 0 0-19.392-40.256H497.28L594.896 454.8a24 24 0 1 0-37.792-29.6L430.12 587.36a24.8 24.8 0 0 0 19.52 40.088h76.544l-80.96 101.6z" p-id="17169"></path></svg>