<?xml version="1.0" standalone="no"?><!DOCTYPE svg PUBLIC "-//W3C//DTD SVG 1.1//EN" "http://www.w3.org/Graphics/SVG/1.1/DTD/svg11.dtd"><svg t="1593937666784" class="icon" viewBox="0 0 1024 1024" version="1.1" xmlns="http://www.w3.org/2000/svg" p-id="2847" xmlns:xlink="http://www.w3.org/1999/xlink" width="200" height="200"><defs><style type="text/css"></style></defs><path d="M514.166791 55.316903v917.699776h-458.849888v-917.699776h458.849888m50.983321-50.983321h-560.81653v1019.666418h560.81653z" p-id="2848"></path><path d="M973.016679 386.708489v586.30819h-407.866567v-586.30819h407.866567m50.983321-50.983321h-509.833209v688.274832h509.833209v-688.274832z" p-id="2849"></path><path d="M845.558377 769.083396v203.933283h-127.458302v-203.933283h127.458302m50.983321-50.983321h-229.424944v305.899925h229.424944v-305.899925zM335.725168 769.083396v203.933283h-127.458302v-203.933283h127.458302m50.983321-50.983321h-229.424944v305.899925h229.424944v-305.899925zM208.266866 157.283545h-50.983321v484.341548h50.983321v-484.341548zM386.708489 157.283545h-50.983321v484.341548h50.983321v-484.341548zM896.541698 463.18347h-229.424944v50.983321h229.424944v-50.983321zM896.541698 590.641772h-229.424944v50.983321h229.424944v-50.983321z" p-id="2850"></path></svg>