<?xml version="1.0" standalone="no"?><!DOCTYPE svg PUBLIC "-//W3C//DTD SVG 1.1//EN" "http://www.w3.org/Graphics/SVG/1.1/DTD/svg11.dtd"><svg t="1593945351969" class="icon" viewBox="0 0 1024 1024" version="1.1" xmlns="http://www.w3.org/2000/svg" p-id="17381" xmlns:xlink="http://www.w3.org/1999/xlink" width="200" height="200"><defs><style type="text/css"></style></defs><path d="M898 64.22H130a30 30 0 0 0-30 30v804.07a30 30 0 0 0 30 30h768a30 30 0 0 0 30-30V94.22a30 30 0 0 0-30-30z m-0.87 801.61a30 30 0 0 1-30 30h-708.9a30 30 0 0 1-30-30V128.15a30 30 0 0 1 30-30h708.9a30 30 0 0 1 30 30z" fill="#4D4D4D" p-id="17382"></path><path d="M814.09 640H212a20 20 0 0 0-20 20v194.78a20 20 0 0 0 20 20h602.09a20 20 0 0 0 20-20V660a20 20 0 0 0-20-20z m-3.88 198.65a15 15 0 0 1-15 15H226a15 15 0 0 1-15-15V677.83a15 15 0 0 1 15-15h569.21a15 15 0 0 1 15 15zM546.11 136.21H221.75a30 30 0 0 0-30 30v379.84a30 30 0 0 0 30 30h324.36a30 30 0 0 0 30-30V166.21a30 30 0 0 0-30-30z m-6.31 376.41a20 20 0 0 1-20 20H250.18a20 20 0 0 1-20-20v-329.2a20 20 0 0 1 20-20H519.8a20 20 0 0 1 20 20z" fill="#4D4D4D" p-id="17383"></path><path d="M704.14 152.64a39.15 39.15 0 1 0 39.14 39.14 39.15 39.15 0 0 0-39.14-39.14z m0 57.39a18.25 18.25 0 1 1 18.24-18.25A18.25 18.25 0 0 1 704.14 210zM704.14 281.08a39.15 39.15 0 1 0 39.14 39.14 39.14 39.14 0 0 0-39.14-39.14z m0 57.39a18.25 18.25 0 1 1 18.24-18.25 18.25 18.25 0 0 1-18.24 18.25zM704.14 409.06a39.15 39.15 0 1 0 39.14 39.15 39.15 39.15 0 0 0-39.14-39.15z m0 57.39a18.25 18.25 0 1 1 18.24-18.24 18.25 18.25 0 0 1-18.24 18.24z" fill="#4D4D4D" p-id="17384"></path><path d="M253.38 735.84m20 0l478.59 0q20 0 20 20l0 23.92q0 20-20 20l-478.59 0q-20 0-20-20l0-23.92q0-20 20-20Z" fill="#4D4D4D" p-id="17385"></path></svg>