<?xml version="1.0" standalone="no"?><!DOCTYPE svg PUBLIC "-//W3C//DTD SVG 1.1//EN" "http://www.w3.org/Graphics/SVG/1.1/DTD/svg11.dtd"><svg t="1593945045668" class="icon" viewBox="0 0 1024 1024" version="1.1" xmlns="http://www.w3.org/2000/svg" p-id="6711" xmlns:xlink="http://www.w3.org/1999/xlink" width="200" height="200"><defs><style type="text/css"></style></defs><path d="M512 0C311.466667 0 149.333333 157.866667 149.333333 349.866667c0 102.4 46.933333 198.4 125.866667 264.533333 17.066667 12.8 25.6 34.133333 25.6 55.466667v29.866666c0 38.4 32 70.4 68.266667 70.4h283.733333c38.4 0 68.266667-32 68.266667-70.4v-29.866666c0-21.333333 8.533333-40.533333 25.6-55.466667 78.933333-66.133333 125.866667-162.133333 125.866666-264.533333C874.666667 157.866667 712.533333 0 512 0z m209.066667 580.266667c-25.6 21.333333-40.533333 53.333333-40.533334 87.466666v29.866667c0 14.933333-12.8 27.733333-25.6 27.733333H369.066667c-14.933333 0-25.6-12.8-25.6-27.733333v-29.866667c0-34.133333-14.933333-66.133333-40.533334-87.466666C232.533333 522.666667 192 439.466667 192 349.866667 192 181.333333 334.933333 42.666667 512 42.666667s320 138.666667 320 307.2c0 89.6-40.533333 172.8-110.933333 230.4zM691.2 187.733333c-44.8-49.066667-102.4-74.666667-164.266667-74.666666-12.8 0-21.333333 8.533333-21.333333 21.333333s8.533333 21.333333 21.333333 21.333333c64 0 108.8 34.133333 134.4 61.866667 38.4 42.666667 61.866667 100.266667 64 155.733333 0 10.666667 8.533333 19.2 19.2 19.2 12.8 0 21.333333-8.533333 21.333334-21.333333-2.133333-66.133333-29.866667-134.4-74.666667-183.466667zM661.333333 810.666667H362.666667c-12.8 0-21.333333 8.533333-21.333334 21.333333s8.533333 21.333333 21.333334 21.333333h298.666666c12.8 0 21.333333-8.533333 21.333334-21.333333s-8.533333-21.333333-21.333334-21.333333z m-42.666666 85.333333H405.333333c-12.8 0-21.333333 8.533333-21.333333 21.333333s8.533333 21.333333 21.333333 21.333334h213.333334c12.8 0 21.333333-8.533333 21.333333-21.333334s-8.533333-21.333333-21.333333-21.333333z m-42.666667 85.333333h-128c-12.8 0-21.333333 8.533333-21.333333 21.333334s8.533333 21.333333 21.333333 21.333333h128c12.8 0 21.333333-8.533333 21.333333-21.333333s-8.533333-21.333333-21.333333-21.333334z" fill="#666767" p-id="6712"></path></svg>