<?xml version="1.0" standalone="no"?><!DOCTYPE svg PUBLIC "-//W3C//DTD SVG 1.1//EN" "http://www.w3.org/Graphics/SVG/1.1/DTD/svg11.dtd"><svg t="1593942435965" class="icon" viewBox="0 0 1025 1024" version="1.1" xmlns="http://www.w3.org/2000/svg" p-id="9441" xmlns:xlink="http://www.w3.org/1999/xlink" width="200.1953125" height="200"><defs><style type="text/css"></style></defs><path d="M916.850447 294.71246l0-44.530642c0-23.649481-19.349575-42.999056-42.999056-42.999056l-723.264601 0c-23.649481 0-42.999056 19.349575-42.999056 42.999056l0 44.530642L916.850447 294.71246z" p-id="9442"></path><path d="M107.587734 311.603922l0 462.214259c0 23.649481 19.349575 42.999056 42.999056 42.999056l723.264601 0c23.649481 0 42.999056-19.349575 42.999056-42.999056l0-462.214259L107.587734 311.603922zM734.113672 733.892534c0 23.649481-19.349575 42.999056-42.999056 42.999056L207.4039 776.891591c-23.649481 0-42.999056-19.349575-42.999056-42.999056l0-335.649609c0-23.649481 19.349575-42.999056 42.999056-42.999056l483.710716 0c23.649481 0 42.999056 19.349575 42.999056 42.999056L734.113672 733.892534zM873.043623 589.613296c0 8.198487-6.646426 14.844912-14.844912 14.844912l-37.880121 0c-8.198487 0-14.844912-6.646426-14.844912-14.844912l0-19.60757c0-8.198487 6.646426-14.844912 14.844912-14.844912s14.844912-6.646426 14.844912-14.844912l0-127.973382c0-8.198487-6.646426-14.844912-14.844912-14.844912s-14.844912-6.646426-14.844912-14.844912l0-9.214083c0-8.198487 6.646426-14.844912 14.844912-14.844912l37.880121 0c8.198487 0 14.844912 6.646426 14.844912 14.844912L873.043623 589.613296z" p-id="9443"></path><path d="M683.131125 482.471934l-466.846896 0c-5.349287 0-9.725977-4.37669-9.725977-9.725977l0 0c0-5.349287 4.37669-9.725977 9.725977-9.725977l466.846896 0c5.349287 0 9.725977 4.37669 9.725977 9.725977l0 0C692.857102 478.095244 688.480412 482.471934 683.131125 482.471934z" p-id="9444"></path><path d="M683.131125 644.230288l-466.846896 0c-5.349287 0-9.725977-4.37669-9.725977-9.725977l0 0c0-5.349287 4.37669-9.725977 9.725977-9.725977l466.846896 0c5.349287 0 9.725977 4.37669 9.725977 9.725977l0 0C692.857102 639.853598 688.480412 644.230288 683.131125 644.230288z" p-id="9445"></path></svg>