<?xml version="1.0" standalone="no"?><!DOCTYPE svg PUBLIC "-//W3C//DTD SVG 1.1//EN" "http://www.w3.org/Graphics/SVG/1.1/DTD/svg11.dtd"><svg t="1593945261405" class="icon" viewBox="0 0 1024 1024" version="1.1" xmlns="http://www.w3.org/2000/svg" p-id="15768" xmlns:xlink="http://www.w3.org/1999/xlink" width="200" height="200"><defs><style type="text/css"></style></defs><path d="M935.073684 75.452632H88.926316c-29.642105 0-53.894737 24.252632-53.894737 53.894736v762.610527c0 29.642105 24.252632 53.894737 53.894737 53.894737h843.452631c29.642105 0 53.894737-24.252632 53.894737-53.894737V132.042105c2.694737-32.336842-21.557895-56.589474-51.2-56.589473z m16.168421 816.505263c0 10.778947-8.084211 16.168421-16.168421 16.168421H88.926316c-10.778947 0-16.168421-8.084211-16.168421-16.168421V132.042105c0-10.778947 8.084211-16.168421 16.168421-16.168421h843.452631c10.778947 0 16.168421 8.084211 16.168421 16.168421v759.91579z" fill="#101010" p-id="15769"></path><path d="M439.242105 272.168421H234.442105c-10.778947 0-18.863158 8.084211-18.863158 18.863158s8.084211 18.863158 18.863158 18.863158h204.8c10.778947 0 18.863158-8.084211 18.863158-18.863158s-8.084211-18.863158-18.863158-18.863158zM794.947368 670.989474h-204.8c-10.778947 0-18.863158 8.084211-18.863157 18.863158s8.084211 18.863158 18.863157 18.863157h204.8c10.778947 0 18.863158-8.084211 18.863158-18.863157s-8.084211-18.863158-18.863158-18.863158z" fill="#101010" p-id="15770"></path><path d="M846.147368 164.378947H177.852632c-24.252632 0-43.115789 21.557895-43.11579 45.810527v606.315789c0 24.252632 18.863158 43.115789 43.11579 43.11579h668.294736c24.252632 0 43.115789-18.863158 43.11579-43.11579V210.189474c0-24.252632-18.863158-45.810526-43.11579-45.810527z m-673.68421 649.431579V210.189474c0-2.694737 2.694737-5.389474 5.389474-5.389474h315.28421v617.094737H177.852632c-2.694737 0-5.389474-2.694737-5.389474-8.084211z m679.073684 0c0 2.694737-2.694737 5.389474-5.389474 5.389474H530.863158V202.105263h315.28421c2.694737 0 5.389474 2.694737 5.389474 5.389474v606.315789z" fill="#101010" p-id="15771"></path></svg>