<svg t="1594476693609" class="icon" viewBox="0 0 1024 1024" version="1.1" xmlns="http://www.w3.org/2000/svg" p-id="2918" width="200" height="200"><path d="M880.851458 4.324585H139.613566c-75.670277 0-138.506301 61.550606-138.506301 138.496337v741.237892c0 75.660312 61.56057 138.496336 138.496336 138.496336h741.237893c75.660312 0 138.496336-61.56057 138.496336-138.496336V142.820922c0.009964-76.945731-61.540641-138.496336-138.486372-138.496337z m66.821817 873.446641c0 40.336223-32.783146 73.119369-73.119369 73.119369H145.901154c-40.346188 0-73.119369-32.773182-73.119369-73.119369V149.10851c0-40.346188 32.773182-73.119369 73.119369-73.11937h728.662716c40.336223 0 73.119369 32.773182 73.119369 73.11937V877.771226z m7.553077 6.287588" fill="#bbbbbb" p-id="2919"></path><path d="M280.680739 494.198453V145.381793c0-17.955997-14.109707-32.055739-32.065704-32.055738s-32.055739 14.109707-32.055739 32.055738v350.102078c-52.572607 14.109707-91.055437 61.550606-91.055437 119.264886 0 57.704316 38.472865 105.155179 91.055437 119.264886v162.869459c0 17.955997 14.109707 32.055739 32.055739 32.055739 17.955997 0 32.065703-14.109707 32.065704-32.055739V732.728225c52.572607-14.099742 91.055437-61.550606 91.055437-119.264886-0.009964-57.704316-38.48283-105.155179-91.055437-119.264886z m-30.780286 179.550002h-2.560871c-32.055739 0-58.989734-26.933995-58.989734-58.989734 0-33.341157 26.933995-58.989734 58.989734-58.989734s58.989734 26.924031 58.989733 58.989734c2.560872 30.770321-24.373123 57.704316-56.428862 58.989734z m541.180986-87.209147V145.381793c0-17.955997-14.109707-32.055739-32.055739-32.055738-17.955997 0-32.055739 14.109707-32.055738 32.055738v441.147551c-52.582572 14.109707-91.055437 61.56057-91.055438 119.264886 0 56.428862 38.472865 105.155179 91.055438 119.264885v71.814023c0 17.955997 14.109707 32.055739 32.055738 32.055739 17.955997 0 32.055739-14.109707 32.055739-32.055739V825.059115c52.582572-14.109707 91.055437-61.56057 91.055437-119.264885-0.009964-57.694351-38.472865-105.145215-91.055437-119.254922z m-32.065703 178.25462c-33.341157 0-58.989734-26.933995-58.989734-58.989734 0-33.341157 26.933995-58.989734 58.989734-58.989734 33.341157 0 58.989734 26.933995 58.989734 58.989734s-25.638612 58.989734-58.989734 58.989734z m-216.727485-511.686119v-109.011434c0-17.955997-14.109707-32.055739-32.055739-32.055739-17.955997 0-32.055739 14.109707-32.055739 32.055739v109.011434c-52.582572 14.109707-91.055437 61.56057-91.055437 119.264886 0 56.428862 38.472865 105.155179 91.055437 119.264886v403.960103c0 17.955997 14.109707 32.055739 32.055739 32.055739 17.955997 0 32.055739-14.109707 32.055739-32.055739v-403.960103c52.582572-14.109707 91.055437-61.550606 91.055437-119.264886 0-56.428862-38.472865-105.155179-91.055437-119.264886z m-32.055739 179.540038c-33.341157 0-58.989734-26.924031-58.989734-58.989734 0-33.341157 26.933995-58.989734 58.989734-58.989734 33.341157 0 58.989734 26.924031 58.989734 58.989734 0 32.055739-25.648577 58.989734-58.989734 58.989734z m0 0" fill="#bbbbbb" p-id="2920"></path></svg>