<?xml version="1.0" standalone="no"?><!DOCTYPE svg PUBLIC "-//W3C//DTD SVG 1.1//EN" "http://www.w3.org/Graphics/SVG/1.1/DTD/svg11.dtd"><svg t="1593945110558" class="icon" viewBox="0 0 1024 1024" version="1.1" xmlns="http://www.w3.org/2000/svg" p-id="9182" xmlns:xlink="http://www.w3.org/1999/xlink" width="200" height="200"><defs><style type="text/css"></style></defs><path d="M918 681.6H106c-23.2 0-42-18.8-42-42V215.1c0-23.2 18.8-42 42-42h812c23.2 0 42 18.8 42 42v424.5c0 23.2-18.8 42-42 42zM106 197.3c-9.8 0-17.8 8-17.8 17.8v424.5c0 9.8 8 17.8 17.8 17.8h812c9.8 0 17.8-8 17.8-17.8V215.1c0-9.8-8-17.8-17.8-17.8H106z" fill="#A0A0A0" p-id="9183"></path><path d="M76.1 551.8h871.8V576H76.1z" fill="#9FA0A0" p-id="9184"></path><path d="M866.4 318.4H738.8c-0.4 0-0.8-0.3-0.8-0.8v-22.7c0-0.4 0.3-0.8 0.8-0.8h127.7c0.4 0 0.8 0.3 0.8 0.8v22.7c-0.1 0.4-0.5 0.8-0.9 0.8zM500 847.8v-79.2c0-0.4 0.3-0.8 0.7-0.8h22.7c0.4 0 0.8 0.3 0.8 0.8v79.2c0 0.4-0.3 0.8-0.8 0.8h-22.7c-0.4-0.1-0.7-0.4-0.7-0.8zM910.7 852.6l-67.4-67.4c-0.3-0.3-0.3-0.8 0-1.1l16.1-16.1c0.3-0.3 0.8-0.3 1.1 0l67.4 67.4c0.3 0.3 0.3 0.8 0 1.1l-16.1 16.1c-0.4 0.3-0.9 0.3-1.1 0zM294.4 843.8l43.6-75.6c0.2-0.4 0.7-0.5 1-0.3l19.7 11.4c0.4 0.2 0.5 0.7 0.3 1l-43.6 75.6c-0.2 0.4-0.7 0.5-1 0.3l-19.7-11.4c-0.3-0.2-0.5-0.7-0.3-1zM731.6 843.8L688 768.2c-0.2-0.4-0.7-0.5-1-0.3l-19.7 11.4c-0.4 0.2-0.5 0.7-0.3 1l43.6 75.6c0.2 0.4 0.7 0.5 1 0.3l19.7-11.4c0.3-0.2 0.5-0.7 0.3-1zM98.2 835.5l67.4-67.4c0.3-0.3 0.8-0.3 1.1 0l16.1 16.1c0.3 0.3 0.3 0.8 0 1.1l-67.4 67.4c-0.3 0.3-0.8 0.3-1.1 0l-16.1-16.1c-0.3-0.4-0.3-0.9 0-1.1z" fill="#A0A0A0" p-id="9185"></path></svg>