<?xml version="1.0" standalone="no"?><!DOCTYPE svg PUBLIC "-//W3C//DTD SVG 1.1//EN" "http://www.w3.org/Graphics/SVG/1.1/DTD/svg11.dtd"><svg t="1593945161430" class="icon" viewBox="0 0 1024 1024" version="1.1" xmlns="http://www.w3.org/2000/svg" p-id="9523" xmlns:xlink="http://www.w3.org/1999/xlink" width="200" height="200"><defs><style type="text/css"></style></defs><path d="M659 574.6c-13.3 0-24 10.7-24 24v268.1c0 25-20.3 45.3-45.4 45.3H158.4c-25.1 0-45.3-20.3-45.4-45.3V157.3c0-25 20.3-45.3 45.4-45.3h431.3c25.1 0 45.3 20.3 45.4 45.3v265.9c0 13.3 10.7 24 24 24s24-10.7 24-24V157.3c0-51.6-41.8-93.3-93.4-93.3H158.4C106.8 64 65 105.7 65 157.3v709.5c0 51.6 41.8 93.3 93.4 93.3h431.3c51.6 0 93.3-41.8 93.4-93.3V598.7c-0.1-13.3-10.8-24.1-24.1-24.1zM238.3 245.4c-13.3 0-24 10.7-24 24s10.7 24 24 24h272.3c13.3 0 24-10.7 24-24s-10.7-24-24-24H238.3zM935 488H237.9c-13.3 0-24 10.7-24 24s10.7 24 24 24H935c13.3 0 24-10.7 24-24s-10.7-24-24-24z" fill="" p-id="9524"></path></svg>